<?xml version="1.0" encoding="utf-8"?>
<!-- Generator: Adobe Illustrator 27.1.0, SVG Export Plug-In . SVG Version: 6.00 Build 0)  -->
<svg version="1.1" id="Capa_1" xmlns="http://www.w3.org/2000/svg" xmlns:xlink="http://www.w3.org/1999/xlink" x="0px" y="0px"
	 viewBox="0 0 96 96" style="enable-background:new 0 0 96 96;" xml:space="preserve">
<style type="text/css">
	.st0{fill:#F6F6F7;}
</style>
<path class="st0" d="M47.5,6.9C6.7,6.9,3.4,10.1,3.4,51v0.7c0,41,3.2,44.3,44.1,44.3h0.7c41,0,44.3-3.2,44.3-44.1v-0.5
	c0-41.3-3.2-44.6-44.6-44.6H47.5z M39.1,15.8h17.8c24.8,0,26.7,2,26.7,26.7v17.8c0,24.8-1.9,26.7-26.7,26.7H39.1
	c-24.8,0-26.7-1.9-26.7-26.7V42.5C12.3,17.7,14.3,15.8,39.1,15.8z M70.3,24.7c-2.5,0-4.5,2-4.5,4.5c0,2.5,2,4.5,4.5,4.5
	s4.5-2,4.5-4.5C74.7,26.6,72.7,24.7,70.3,24.7z M48,29.1c-12.3,0-22.3,10.1-22.3,22.3S35.8,73.7,48,73.7s22.3-10.1,22.3-22.3
	S60.2,29.1,48,29.1z M48,38.1c7.4,0,13.4,5.9,13.4,13.4S55.4,64.8,48,64.8s-13.4-5.9-13.4-13.4C34.6,44.2,40.6,38.1,48,38.1z"/>
</svg>
