<?xml version="1.0" encoding="utf-8"?>
<!-- Generator: Adobe Illustrator 27.1.0, SVG Export Plug-In . SVG Version: 6.00 Build 0)  -->
<svg version="1.1" id="Capa_1" xmlns="http://www.w3.org/2000/svg" xmlns:xlink="http://www.w3.org/1999/xlink" x="0px" y="0px"
	 viewBox="0 0 207 104" style="enable-background:new 0 0 207 104;" xml:space="preserve">
<style type="text/css">
	.st0{fill:#F6F6F7;}
</style>
<g>
	<path class="st0" d="M32.09,43.74c6.78,0,12.72,2.22,15.48,6.6c3.06,4.8-0.78,8.7-4.38,8.7c-1.5,0-2.88-0.66-3.84-2.1
		c-3.12-4.86-5.52-10.92-12.42-10.92c-5.22,0-8.22,4.32-8.22,10.68c0,8.1,7.44,26.28,17.94,26.28c4.98,0,9.48-3.36,11.58-6.48
		c0.36-0.54,0.84-0.78,1.26-0.78c0.84,0,1.56,0.9,0.9,2.22c-1.86,3.84-8.82,10.2-18.3,10.2c-12,0-20.7-9-20.7-22.2
		C11.39,52.74,20.09,43.74,32.09,43.74z"/>
	<path class="st0" d="M66.11,70.44c3.78-1.5,7.62-1.98,7.86-5.46c-0.18-4.38-1.08-7.38-4.38-7.38c-3.24,0-4.2,3.9-5.22,6.36
		c-0.96,2.28-2.7,3.18-4.44,3.18c-2.28,0-4.5-1.68-4.62-4.26c-0.3-6.3,9.84-7.08,14.1-7.08c7.02,0,14.7,3.06,14.7,14.88
		c0,5.1-0.3,12.72,2.52,14.4c0.78,0.48,0.9,1.86-2.34,1.86c-6.54,0-9-2.22-9.9-5.22c-1.44,3.12-4.2,5.22-8.88,5.22
		c-8.04,0-12.72-3.36-12.72-7.68C52.79,73.8,61.85,72.12,66.11,70.44z M62.99,79.5c0,1.44,0.96,5.4,4.68,5.4
		c5.28,0,6.24-6.42,6.24-10.5c0-2.1,0.06-4.14,0.06-6c-1.5,1.38-3.78,2.34-6,3.3C65.09,72.96,62.99,74.88,62.99,79.5z"/>
	<path class="st0" d="M86.15,57.84c0-0.54,0.36-0.9,0.9-0.9h1.38c4.32,0,8.4-2.82,8.4-8.76c0-0.54,0.48-0.84,0.9-0.84
		c0.48,0,0.9,0.3,0.9,0.84v8.76h5.16c0.54,0,0.9,0.36,0.9,0.9c0,0.6-0.36,0.9-0.9,0.9h-5.16v11.94c0,5.1-0.3,12.78,2.52,14.46
		c0.78,0.48,0.9,1.8-1.8,1.8c-6.06,0-10.92-2.82-10.92-8.34V58.74h-1.38C86.51,58.74,86.15,58.38,86.15,57.84z"/>
	<path class="st0" d="M118.13,70.44c3.78-1.5,7.62-1.98,7.86-5.46c-0.18-4.38-1.08-7.38-4.38-7.38c-3.24,0-4.2,3.9-5.22,6.36
		c-0.96,2.28-2.7,3.18-4.44,3.18c-2.28,0-4.5-1.68-4.62-4.26c-0.3-6.3,9.84-7.08,14.1-7.08c7.02,0,14.7,3.06,14.7,14.88
		c0,5.1-0.3,12.72,2.52,14.4c0.78,0.48,0.9,1.86-2.34,1.86c-6.54,0-9-2.22-9.9-5.22c-1.44,3.12-4.2,5.22-8.88,5.22
		c-8.04,0-12.72-3.36-12.72-7.68C104.81,73.8,113.87,72.12,118.13,70.44z M115.01,79.5c0,1.44,0.96,5.4,4.68,5.4
		c5.28,0,6.24-6.42,6.24-10.5c0-2.1,0.06-4.14,0.06-6c-1.5,1.38-3.78,2.34-6,3.3C117.11,72.96,115.01,74.88,115.01,79.5z"/>
	<path class="st0" d="M142.49,56.88l10.98-0.96c1.02-0.06,1.74,0.6,1.74,1.62v5.52c1.92-4.62,6.3-7.26,11.28-7.26
		c9.6,0,8.22,10.02,1.92,10.02c-4.5,0-4.26-5.82-7.44-5.82c-3.9,0-5.7,8.52-5.76,9.12v1.56c0,5.1-0.3,12.78,2.52,14.46
		c0.78,0.48,0.9,1.8,0,1.8h-15.24c-0.9,0-0.78-1.32,0-1.8c2.46-1.5,2.52-6.84,2.52-9.9v-8.16c0-3.12-0.18-7.02-2.52-8.4
		C141.71,58.2,141.59,56.94,142.49,56.88z"/>
	<path class="st0" d="M176.15,85.14c2.46-1.5,2.52-4.5,2.52-7.56V65.16c0-2.76-0.18-4.98-2.52-6.42c-0.78-0.48-0.9-1.74,0-1.8
		l10.98-0.96c1.02-0.12,1.74,0.54,1.74,1.56v20.1c0,3-0.3,5.82,2.52,7.5c0.78,0.48,0.9,1.8,0,1.8h-15.24
		C175.25,86.94,175.37,85.62,176.15,85.14z"/>
</g>
<path class="st0" d="M196.04,32.51c-8.69,1.63-10.65,4.03-11.76,16.54c-0.06,0.63-0.98,0.63-1.03,0
	c-1.11-12.51-3.06-14.91-11.76-16.54c-0.56-0.11-0.56-0.91,0-1.02c8.69-1.63,10.65-4.03,11.76-16.54c0.06-0.63,0.98-0.63,1.03,0
	c1.11,12.51,3.06,14.91,11.76,16.54C196.6,31.6,196.6,32.4,196.04,32.51z"/>
<g>
	<path class="st0" d="M171.01,22.88c-13.88-3.12-27.73-4.84-41.84-5.53c-23.42-1.33-47.41,4.95-66.05,19.53
		c-0.09,0.07-0.22,0.06-0.29-0.03c-0.06-0.09-0.05-0.21,0.03-0.27c4.04-3.49,8.36-6.73,12.96-9.49
		c23.96-14.11,55.26-17.29,81.88-9.62c4.61,1.32,9.14,2.91,13.44,5.05C171.36,22.6,171.23,22.95,171.01,22.88L171.01,22.88z"/>
</g>
</svg>
